<svg viewBox="0 0 512 512" xml:space="preserve" xmlns="http://www.w3.org/2000/svg" enable-background="new 0 0 512 512"><path d="M239 247H51a8 8 0 0 1-8-8V51a8 8 0 0 1 8-8h188a8 8 0 0 1 8 8v188a8 8 0 0 1-8 8zM59 231h172V59H59v172zM461 247H273a8 8 0 0 1-8-8V51a8 8 0 0 1 8-8h188a8 8 0 0 1 8 8v188a8 8 0 0 1-8 8zm-180-16h172V59H281v172zM239 469H51a8 8 0 0 1-8-8V273a8 8 0 0 1 8-8h188a8 8 0 0 1 8 8v188a8 8 0 0 1-8 8zM59 453h172V281H59v172zM461 469H273a8 8 0 0 1-8-8V273a8 8 0 0 1 8-8h188a8 8 0 0 1 8 8v188a8 8 0 0 1-8 8zm-180-16h172V281H281v172z" fill="#ffffff" class="fill-000000"></path></svg>