<!--?xml version="1.0" standalone="no"?-->              <svg id="sw-js-blob-svg" viewBox="0 0 100 100" xmlns="http://www.w3.org/2000/svg">                    <defs>                         <linearGradient id="sw-gradient" x1="0" x2="1" y1="1" y2="0">                            <stop id="stop1" stop-color="rgba(26, 29, 50, 0.2)" offset="0%"></stop>                            <stop id="stop2" stop-color="rgba(251, 168, 31, 1)" offset="100%"></stop>                        </linearGradient>                    </defs>                <path fill="rgba(26, 29, 50, 0.2)" d="M27.8,-33.4C34.8,-27.2,38.6,-17.3,39.9,-7.4C41.3,2.6,40.3,12.6,35.5,20.1C30.7,27.6,22.2,32.6,13.3,35.2C4.5,37.7,-4.7,37.9,-14,35.7C-23.3,33.5,-32.8,29,-37,21.5C-41.1,14,-39.9,3.6,-36,-4.2C-32.1,-12,-25.5,-17.2,-19,-23.5C-12.6,-29.9,-6.3,-37.3,2,-39.7C10.4,-42.1,20.7,-39.6,27.8,-33.4Z" width="100%" height="100%" transform="translate(50 50)" stroke-width="0" style="transition: all 0.3s ease 0s;" stroke="rgba(26, 29, 50, 0.2)"></path>              </svg>