<svg viewBox="0 0 512 512" xml:space="preserve" xmlns="http://www.w3.org/2000/svg" enable-background="new 0 0 512 512"><path d="M455 463H254a8 8 0 0 1 0-16h193V65H254a8 8 0 0 1 0-16h201a8 8 0 0 1 8 8v398a8 8 0 0 1-8 8z" fill="#ffffff" class="fill-000000"></path><path d="M336.5 232.5c-10.215 0-18.904 6.52-22.143 15.624A7.981 7.981 0 0 0 313 248H76.313l68.344-68.343a7.998 7.998 0 0 0 0-11.313 7.999 7.999 0 0 0-11.313 0l-82 81.999a7.999 7.999 0 0 0 0 11.315l82 82a7.974 7.974 0 0 0 5.657 2.343 7.999 7.999 0 0 0 5.657-13.657L76.314 264H313c.464 0 .915-.048 1.357-.124 3.238 9.104 11.928 15.624 22.143 15.624 12.979 0 23.5-10.521 23.5-23.5s-10.521-23.5-23.5-23.5zm0 31c-4.136 0-7.5-3.364-7.5-7.5s3.364-7.5 7.5-7.5 7.5 3.364 7.5 7.5-3.364 7.5-7.5 7.5z" fill="#ffffff" class="fill-000000"></path></svg>